<svg width="73" height="77" viewBox="0 0 73 77" fill="none" xmlns="http://www.w3.org/2000/svg">
<rect x="12" y="8" width="48" height="47" rx="23.5" fill="#00CED1"/>
<g filter="url(#filter0_dd_5_198)">
<rect x="12" y="8" width="48.02" height="47" rx="23.5" fill="white" fill-opacity="0.01" shape-rendering="crispEdges"/>
</g>
<path d="M30 43C29.1667 43 28.4583 42.7083 27.875 42.125C27.2917 41.5417 27 40.8333 27 40C27 39.1667 27.2917 38.4583 27.875 37.875C28.4583 37.2917 29.1667 37 30 37C30.2333 37 30.45 37.025 30.65 37.075C30.85 37.125 31.0417 37.1917 31.225 37.275L32.65 35.5C32.1833 34.9833 31.8583 34.4 31.675 33.75C31.4917 33.1 31.45 32.45 31.55 31.8L29.525 31.125C29.2417 31.5417 28.8833 31.875 28.45 32.125C28.0167 32.375 27.5333 32.5 27 32.5C26.1667 32.5 25.4583 32.2083 24.875 31.625C24.2917 31.0417 24 30.3333 24 29.5C24 28.6667 24.2917 27.9583 24.875 27.375C25.4583 26.7917 26.1667 26.5 27 26.5C27.8333 26.5 28.5417 26.7917 29.125 27.375C29.7083 27.9583 30 28.6667 30 29.5C30 29.5333 30 29.5667 30 29.6C30 29.6333 30 29.6667 30 29.7L32.025 30.4C32.3583 29.8 32.8042 29.2917 33.3625 28.875C33.9208 28.4583 34.55 28.1917 35.25 28.075V25.9C34.6 25.7167 34.0625 25.3625 33.6375 24.8375C33.2125 24.3125 33 23.7 33 23C33 22.1667 33.2917 21.4583 33.875 20.875C34.4583 20.2917 35.1667 20 36 20C36.8333 20 37.5417 20.2917 38.125 20.875C38.7083 21.4583 39 22.1667 39 23C39 23.7 38.7833 24.3125 38.35 24.8375C37.9167 25.3625 37.3833 25.7167 36.75 25.9V28.075C37.45 28.1917 38.0792 28.4583 38.6375 28.875C39.1958 29.2917 39.6417 29.8 39.975 30.4L42 29.7C42 29.6667 42 29.6333 42 29.6C42 29.5667 42 29.5333 42 29.5C42 28.6667 42.2917 27.9583 42.875 27.375C43.4583 26.7917 44.1667 26.5 45 26.5C45.8333 26.5 46.5417 26.7917 47.125 27.375C47.7083 27.9583 48 28.6667 48 29.5C48 30.3333 47.7083 31.0417 47.125 31.625C46.5417 32.2083 45.8333 32.5 45 32.5C44.4667 32.5 43.9792 32.375 43.5375 32.125C43.0958 31.875 42.7417 31.5417 42.475 31.125L40.45 31.8C40.55 32.45 40.5083 33.0958 40.325 33.7375C40.1417 34.3792 39.8167 34.9667 39.35 35.5L40.775 37.25C40.9583 37.1667 41.15 37.1042 41.35 37.0625C41.55 37.0208 41.7667 37 42 37C42.8333 37 43.5417 37.2917 44.125 37.875C44.7083 38.4583 45 39.1667 45 40C45 40.8333 44.7083 41.5417 44.125 42.125C43.5417 42.7083 42.8333 43 42 43C41.1667 43 40.4583 42.7083 39.875 42.125C39.2917 41.5417 39 40.8333 39 40C39 39.6667 39.0542 39.3458 39.1625 39.0375C39.2708 38.7292 39.4167 38.45 39.6 38.2L38.175 36.425C37.4917 36.8083 36.7625 37 35.9875 37C35.2125 37 34.4833 36.8083 33.8 36.425L32.4 38.2C32.5833 38.45 32.7292 38.7292 32.8375 39.0375C32.9458 39.3458 33 39.6667 33 40C33 40.8333 32.7083 41.5417 32.125 42.125C31.5417 42.7083 30.8333 43 30 43Z" fill="white"/>
<defs>
<filter id="filter0_dd_5_198" x="0" y="6" width="72.02" height="71" filterUnits="userSpaceOnUse" color-interpolation-filters="sRGB">
<feFlood flood-opacity="0" result="BackgroundImageFix"/>
<feColorMatrix in="SourceAlpha" type="matrix" values="0 0 0 0 0 0 0 0 0 0 0 0 0 0 0 0 0 0 127 0" result="hardAlpha"/>
<feMorphology radius="4" operator="erode" in="SourceAlpha" result="effect1_dropShadow_5_198"/>
<feOffset dy="4"/>
<feGaussianBlur stdDeviation="3"/>
<feComposite in2="hardAlpha" operator="out"/>
<feColorMatrix type="matrix" values="0 0 0 0 0 0 0 0 0 0 0 0 0 0 0 0 0 0 0.1 0"/>
<feBlend mode="normal" in2="BackgroundImageFix" result="effect1_dropShadow_5_198"/>
<feColorMatrix in="SourceAlpha" type="matrix" values="0 0 0 0 0 0 0 0 0 0 0 0 0 0 0 0 0 0 127 0" result="hardAlpha"/>
<feMorphology radius="3" operator="erode" in="SourceAlpha" result="effect2_dropShadow_5_198"/>
<feOffset dy="10"/>
<feGaussianBlur stdDeviation="7.5"/>
<feComposite in2="hardAlpha" operator="out"/>
<feColorMatrix type="matrix" values="0 0 0 0 0 0 0 0 0 0 0 0 0 0 0 0 0 0 0.1 0"/>
<feBlend mode="normal" in2="effect1_dropShadow_5_198" result="effect2_dropShadow_5_198"/>
<feBlend mode="normal" in="SourceGraphic" in2="effect2_dropShadow_5_198" result="shape"/>
</filter>
</defs>
</svg>

