<svg width="60" height="16" viewBox="0 0 60 16" fill="none" xmlns="http://www.w3.org/2000/svg">
<path d="M22 16C21.45 16 20.9792 15.8042 20.5875 15.4125C20.1958 15.0208 20 14.55 20 14V2C20 1.45 20.1958 0.979167 20.5875 0.5875C20.9792 0.195833 21.45 0 22 0H38C38.55 0 39.0208 0.195833 39.4125 0.5875C39.8042 0.979167 40 1.45 40 2V14C40 14.55 39.8042 15.0208 39.4125 15.4125C39.0208 15.8042 38.55 16 38 16H22ZM22 14H38V4H22V14ZM25.5 13L24.1 11.6L26.675 9L24.075 6.4L25.5 5L29.5 9L25.5 13ZM30 13V11H36V13H30Z" fill="#94A3B8"/>
</svg>

